<svg version="1.1" xmlns="http://www.w3.org/2000/svg" xmlns:xlink="http://www.w3.org/1999/xlink" width="739" height="411"><defs/><g><g transform="translate(-62,-30) scale(1,1)"><path fill="#ffffff" stroke="none" d="M 115.1035830965909 188.4 C 115.1035830965909 182.10395328 120.14078611040908 177 126.3544921875 177 C 132.5681982645909 177 137.6054012784091 182.10395328 137.6054012784091 188.4 C 137.6054012784091 194.69604672 132.5681982645909 199.8 126.3544921875 199.8 C 120.14078611040908 199.8 115.1035830965909 194.69604672 115.1035830965909 188.4 Z"/></g><g transform="translate(-62,-30) scale(1,1)"><path fill="none" stroke="#000000" d="M 115.1035830965909 188.4 C 115.1035830965909 182.10395328 120.14078611040908 177 126.3544921875 177 C 132.5681982645909 177 137.6054012784091 182.10395328 137.6054012784091 188.4 C 137.6054012784091 194.69604672 132.5681982645909 199.8 126.3544921875 199.8 C 120.14078611040908 199.8 115.1035830965909 194.69604672 115.1035830965909 188.4 Z" stroke-miterlimit="10"/></g><g transform="translate(-62,-30) scale(1,1)"><path fill="none" stroke="#000000" d="M 126.3544921875 199.8 L 126.3544921875 222.2" stroke-miterlimit="10"/></g><g transform="translate(-62,-30) scale(1,1)"><path fill="none" stroke="#000000" d="M 114.44176491477272 208.2 L 138.2672194602273 208.2" stroke-miterlimit="10"/></g><g transform="translate(-62,-30) scale(1,1)"><path fill="none" stroke="#000000" d="M 126.3544921875 222.2 L 109.80903764204544 245" stroke-miterlimit="10"/></g><g transform="translate(-62,-30) scale(1,1)"><path fill="none" stroke="#000000" d="M 126.3544921875 222.2 L 142.89994673295456 245" stroke-miterlimit="10"/></g><g transform="translate(-62,-30) scale(1,1)"><g><path fill="none" stroke="none"/><text fill="#000000" stroke="none" font-family="Arial" font-size="13px" font-style="normal" font-weight="bold" text-decoration="none" x="76.5" y="264">Registered User</text></g></g><g transform="translate(-62,-30) scale(1,1)"><path fill="#C0C0C0" stroke="none" d="M 229.40625 231.5 C 229.40625 160.5314032 355.2561945 103 510.5 103 C 665.7438055 103 791.59375 160.5314032 791.59375 231.5 C 791.59375 302.4685968 665.7438055 360 510.5 360 C 355.2561945 360 229.40625 302.4685968 229.40625 231.5 Z" opacity="0.2"/></g><g transform="translate(-62,-30) scale(1,1)"><path fill="#ffffff" stroke="none" d="M 222.40625 224.5 C 222.40625 153.5314032 348.2561945 96 503.5 96 C 658.7438055 96 784.59375 153.5314032 784.59375 224.5 C 784.59375 295.4685968 658.7438055 353 503.5 353 C 348.2561945 353 222.40625 295.4685968 222.40625 224.5 Z"/></g><g transform="translate(-62,-30) scale(1,1)"><path fill="none" stroke="#000000" d="M 222.40625 224.5 C 222.40625 153.5314032 348.2561945 96 503.5 96 C 658.7438055 96 784.59375 153.5314032 784.59375 224.5 C 784.59375 295.4685968 658.7438055 353 503.5 353 C 348.2561945 353 222.40625 295.4685968 222.40625 224.5 Z" stroke-miterlimit="10"/></g><g transform="translate(-62,-30) scale(1,1)"><g><path fill="none" stroke="none"/><text fill="#000000" stroke="none" font-family="Arial" font-size="13px" font-style="normal" font-weight="normal" text-decoration="none" x="503.5" y="364"></text></g></g><g transform="translate(-62,-30) scale(1,1)"><g><path fill="none" stroke="none"/><text fill="#000000" stroke="none" font-family="Arial" font-size="13px" font-style="normal" font-weight="bold" text-decoration="none" x="481.483154296875" y="384">Logout</text></g></g><g transform="translate(-62,-30) scale(1,1)"><g><path fill="none" stroke="none"/><text fill="#000000" stroke="none" font-family="Arial" font-size="20px" font-style="normal" font-weight="normal" text-decoration="none" x="261" y="60">24k.id - LOGOUT (TYPE: UML CLASS DIAGRAM)</text></g></g><g transform="translate(-62,-30) scale(1,1)"><path fill="none" stroke="#000000" d="M 182 226 L 215 228" stroke-miterlimit="10"/></g><g transform="translate(-62,-30) scale(1,1)"><path fill="none" stroke="#000000" d="M 204.60128308470067 231.58701638070804 L 215 228 L 205.11059314652672 223.18340036057847" stroke-miterlimit="10"/></g><g transform="translate(-62,-30) scale(1,1)"><path fill="#ffffff" stroke="none" d="M 303.4 205 C 303.4 195.72161536 310.92161536 188.2 320.2 188.2 C 329.47838464 188.2 337 195.72161536 337 205 C 337 214.27838464 329.47838464 221.79999999999998 320.2 221.79999999999998 C 310.92161536 221.79999999999998 303.4 214.27838464 303.4 205 Z"/></g><g transform="translate(-62,-30) scale(1,1)"><path fill="none" stroke="#000000" d="M 303.4 205 C 303.4 195.72161536 310.92161536 188.2 320.2 188.2 C 329.47838464 188.2 337 195.72161536 337 205 C 337 214.27838464 329.47838464 221.79999999999998 320.2 221.79999999999998 C 310.92161536 221.79999999999998 303.4 214.27838464 303.4 205 Z" stroke-miterlimit="10"/></g><g transform="translate(-62,-30) scale(1,1)"><path fill="none" stroke="#000000" d="M 295 188.2 L 295 221.79999999999998" stroke-miterlimit="10"/></g><g transform="translate(-62,-30) scale(1,1)"><path fill="none" stroke="#000000" d="M 295 205 L 303.4 205" stroke-miterlimit="10"/></g><g transform="translate(-62,-30) scale(1,1)"><g><path fill="none" stroke="none"/><text fill="#000000" stroke="none" font-family="Arial" font-size="13px" font-style="normal" font-weight="normal" text-decoration="none" x="281.66552734375" y="242">«boundary»</text></g></g><g transform="translate(-62,-30) scale(1,1)"><g><path fill="none" stroke="none"/><text fill="#000000" stroke="none" font-family="Arial" font-size="13px" font-style="normal" font-weight="bold" text-decoration="none" x="273.08984375" y="257">HomeWindow</text></g></g><g transform="translate(-62,-30) scale(1,1)"><path fill="#ffffff" stroke="none" d="M 477.75 205 C 477.75 192.9878056 487.4878056 183.25 499.5 183.25 C 511.5121944 183.25 521.25 192.9878056 521.25 205 C 521.25 217.0121944 511.5121944 226.75 499.5 226.75 C 487.4878056 226.75 477.75 217.0121944 477.75 205 Z"/></g><g transform="translate(-62,-30) scale(1,1)"><path fill="none" stroke="#000000" d="M 477.75 205 C 477.75 192.9878056 487.4878056 183.25 499.5 183.25 C 511.5121944 183.25 521.25 192.9878056 521.25 205 C 521.25 217.0121944 511.5121944 226.75 499.5 226.75 C 487.4878056 226.75 477.75 217.0121944 477.75 205 Z" stroke-miterlimit="10"/></g><g transform="translate(-62,-30) scale(1,1)"><path fill="none" stroke="#000000" d="M 499.5 183.25 L 506.75 176" stroke-miterlimit="10"/></g><g transform="translate(-62,-30) scale(1,1)"><path fill="none" stroke="#000000" d="M 499.5 183.25 L 506.75 190.5" stroke-miterlimit="10"/></g><g transform="translate(-62,-30) scale(1,1)"><g><path fill="none" stroke="none"/><text fill="#000000" stroke="none" font-family="Arial" font-size="13px" font-style="normal" font-weight="normal" text-decoration="none" x="472.760498046875" y="250">«control»</text></g></g><g transform="translate(-62,-30) scale(1,1)"><g><path fill="none" stroke="none"/><text fill="#000000" stroke="none" font-family="Arial" font-size="13px" font-style="normal" font-weight="bold" text-decoration="none" x="477.483154296875" y="265">Logout</text></g></g><g transform="translate(-62,-30) scale(1,1)"><path fill="#ffffff" stroke="none" d="M 655.2 205 C 655.2 195.72161536 662.72161536 188.2 672 188.2 C 681.27838464 188.2 688.8 195.72161536 688.8 205 C 688.8 214.27838464 681.27838464 221.8 672 221.8 C 662.72161536 221.8 655.2 214.27838464 655.2 205 Z"/></g><g transform="translate(-62,-30) scale(1,1)"><path fill="none" stroke="#000000" d="M 655.2 205 C 655.2 195.72161536 662.72161536 188.2 672 188.2 C 681.27838464 188.2 688.8 195.72161536 688.8 205 C 688.8 214.27838464 681.27838464 221.8 672 221.8 C 662.72161536 221.8 655.2 214.27838464 655.2 205 Z" stroke-miterlimit="10"/></g><g transform="translate(-62,-30) scale(1,1)"><path fill="none" stroke="#000000" d="M 655.2 221.8 L 688.8 221.8" stroke-miterlimit="10"/></g><g transform="translate(-62,-30) scale(1,1)"><g><path fill="none" stroke="none"/><text fill="#000000" stroke="none" font-family="Arial" font-size="13px" font-style="normal" font-weight="normal" text-decoration="none" x="649.234130859375" y="242">«entity»</text></g></g><g transform="translate(-62,-30) scale(1,1)"><g><path fill="none" stroke="none"/><text fill="#000000" stroke="none" font-family="Arial" font-size="13px" font-style="normal" font-weight="bold" text-decoration="none" x="648.158203125" y="257">UserDB</text></g></g><g transform="translate(-62,-30) scale(1,1)"><path fill="none" stroke="#000000" d="M 552 224 L 639 224" stroke-miterlimit="10"/></g><g transform="translate(-62,-30) scale(1,1)"><path fill="none" stroke="#000000" d="M 628.8373251423759 228.209517756016 L 639 224 L 628.8373251423758 219.790482243984" stroke-miterlimit="10"/></g><g transform="translate(-62,-30) scale(1,1)"><path fill="none" stroke="#000000" d="M 377 224 L 447 224" stroke-miterlimit="10"/></g><g transform="translate(-62,-30) scale(1,1)"><path fill="none" stroke="#000000" d="M 436.83732514237585 228.209517756016 L 447 224 L 436.83732514237585 219.790482243984" stroke-miterlimit="10"/></g><g transform="translate(-62,-30) scale(1,1)"><path fill="none" stroke="#000000" d="M 447 224 L 377 224" stroke-miterlimit="10"/></g><g transform="translate(-62,-30) scale(1,1)"><path fill="none" stroke="#000000" d="M 387.16267485762415 219.790482243984 L 377 224 L 387.16267485762415 228.209517756016" stroke-miterlimit="10"/></g><g transform="translate(-62,-30) scale(1,1)"><rect fill="#ffffff" stroke="none" x="232" y="400" width="151" height="31"/></g><g transform="translate(-62,-30) scale(1,1)"><path fill="none" stroke="#000000" d="M 232 400 L 383 400 L 383 431 L 232 431 L 232 400 Z Z" stroke-miterlimit="10"/></g><g transform="translate(-62,-30) scale(1,1)"><path fill="none" stroke="#000000" d="M 264.39453125 400 L 264.39453125 431" stroke-miterlimit="10"/></g><g transform="translate(-62,-30) scale(1,1)"><g><path fill="none" stroke="none"/><text fill="#000000" stroke="none" font-family="Arial" font-size="13px" font-style="normal" font-weight="normal" text-decoration="none" x="268.89453125" y="416">https://24k.id/</text></g></g><g transform="translate(-62,-30) scale(1,1)"><g><path fill="none" stroke="none"/><text fill="#000000" stroke="none" font-family="Arial" font-size="13px" font-style="normal" font-weight="bold" text-decoration="none" x="237" y="416">link</text></g></g></g></svg>