<svg version="1.1" xmlns="http://www.w3.org/2000/svg" xmlns:xlink="http://www.w3.org/1999/xlink" width="588" height="1076"><defs/><g><g transform="translate(-166,-110) scale(1,1)"><rect fill="#ffffff" stroke="none" x="184" y="120" width="152" height="21"/></g><g transform="translate(-166,-110) scale(1,1)"><path fill="none" stroke="#000000" d="M 184 120 L 336 120 L 336 141 L 184 141 L 184 120 Z Z" stroke-miterlimit="10" stroke-width="2"/></g><g transform="translate(-166,-110) scale(1,1)"><path fill="none" stroke="#000000" d="M 184 1104 L 184 120 L 336 120 L 336 1104" stroke-miterlimit="10" stroke-width="2"/></g><g transform="translate(-166,-110) scale(1,1)"><g><path fill="none" stroke="none"/><text fill="#000000" stroke="none" font-family="Arial" font-size="13px" font-style="normal" font-weight="normal" text-decoration="none" x="229.661376953125" y="134">Commuter</text></g></g><g transform="translate(-166,-110) scale(1,1)"><rect fill="#ffffff" stroke="none" x="336" y="120" width="232" height="21"/></g><g transform="translate(-166,-110) scale(1,1)"><path fill="none" stroke="#000000" d="M 336 120 L 568 120 L 568 141 L 336 141 L 336 120 Z Z" stroke-miterlimit="10" stroke-width="2"/></g><g transform="translate(-166,-110) scale(1,1)"><path fill="none" stroke="#000000" d="M 336 1104 L 336 120 L 568 120 L 568 1104" stroke-miterlimit="10" stroke-width="2"/></g><g transform="translate(-166,-110) scale(1,1)"><g><path fill="none" stroke="none"/><text fill="#000000" stroke="none" font-family="Arial" font-size="13px" font-style="normal" font-weight="normal" text-decoration="none" x="383.956298828125" y="134">Ticket vending machine</text></g></g><g transform="translate(-166,-110) scale(1,1)"><rect fill="#ffffff" stroke="none" x="568" y="120" width="176" height="21"/></g><g transform="translate(-166,-110) scale(1,1)"><path fill="none" stroke="#000000" d="M 568 120 L 744 120 L 744 141 L 568 141 L 568 120 Z Z" stroke-miterlimit="10" stroke-width="2"/></g><g transform="translate(-166,-110) scale(1,1)"><path fill="none" stroke="#000000" d="M 568 1104 L 568 120 L 744 120 L 744 1104" stroke-miterlimit="10" stroke-width="2"/></g><g transform="translate(-166,-110) scale(1,1)"><g><path fill="none" stroke="none"/><text fill="#000000" stroke="none" font-family="Arial" font-size="13px" font-style="normal" font-weight="normal" text-decoration="none" x="641.1845703125" y="134">Bank</text></g></g><g transform="translate(-166,-110) scale(1,1)"><path fill="none" stroke="#000000" d="M 257 179 L 257 208" stroke-miterlimit="10"/></g><g transform="translate(-166,-110) scale(1,1)"><path fill="none" stroke="#000000" d="M 252.790482243984 197.83732514237585 L 257 208 L 261.209517756016 197.83732514237585" stroke-miterlimit="10"/></g><g transform="translate(-166,-110) scale(1,1)"><path fill="#C0C0C0" stroke="none" d="M 255 176.5 C 255 171.2532944 259.2532944 167 264.5 167 C 269.7467056 167 274 171.2532944 274 176.5 C 274 181.7467056 269.7467056 186 264.5 186 C 259.2532944 186 255 181.7467056 255 176.5 Z" opacity="0.2"/></g><g transform="translate(-166,-110) scale(1,1)"><path fill="#000000" stroke="none" d="M 248 169.5 C 248 164.2532944 252.2532944 160 257.5 160 C 262.7467056 160 267 164.2532944 267 169.5 C 267 174.7467056 262.7467056 179 257.5 179 C 252.2532944 179 248 174.7467056 248 169.5 Z"/></g><g transform="translate(-166,-110) scale(1,1)"><path fill="#C0C0C0" stroke="none" d="M 225 215 L 297 215 Q 307 215 307 225 L 307 258 Q 307 268 297 268 L 225 268 Q 215 268 215 258 L 215 225 Q 215 215 225 215 Z" opacity="0.2"/></g><g transform="translate(-166,-110) scale(1,1)"><path fill="#ffffff" stroke="none" d="M 218 208 L 290 208 Q 300 208 300 218 L 300 251 Q 300 261 290 261 L 218 261 Q 208 261 208 251 L 208 218 Q 208 208 218 208 Z"/></g><g transform="translate(-166,-110) scale(1,1)"><path fill="none" stroke="#000000" d="M 218 208 L 290 208 Q 300 208 300 218 L 300 251 Q 300 261 290 261 L 218 261 Q 208 261 208 251 L 208 218 Q 208 208 218 208 Z" stroke-miterlimit="10"/></g><g transform="translate(-166,-110) scale(1,1)"><g><path fill="none" stroke="none"/><text fill="#000000" stroke="none" font-family="Arial" font-size="13px" font-style="normal" font-weight="bold" text-decoration="none" x="239.19091796875" y="226">Start</text><text fill="#000000" stroke="none" font-family="Arial" font-size="13px" font-style="normal" font-weight="bold" text-decoration="none" x="229.07275390625" y="239">Session</text></g></g><g transform="translate(-166,-110) scale(1,1)"><path fill="#C0C0C0" stroke="none" d="M 225 295 L 293 295 Q 303 295 303 305 L 303 338 Q 303 348 293 348 L 225 348 Q 215 348 215 338 L 215 305 Q 215 295 225 295 Z" opacity="0.2"/></g><g transform="translate(-166,-110) scale(1,1)"><path fill="#ffffff" stroke="none" d="M 218 288 L 286 288 Q 296 288 296 298 L 296 331 Q 296 341 286 341 L 218 341 Q 208 341 208 331 L 208 298 Q 208 288 218 288 Z"/></g><g transform="translate(-166,-110) scale(1,1)"><path fill="none" stroke="#000000" d="M 218 288 L 286 288 Q 296 288 296 298 L 296 331 Q 296 341 286 341 L 218 341 Q 208 341 208 331 L 208 298 Q 208 288 218 288 Z" stroke-miterlimit="10"/></g><g transform="translate(-166,-110) scale(1,1)"><g><path fill="none" stroke="none"/><text fill="#000000" stroke="none" font-family="Arial" font-size="13px" font-style="normal" font-weight="bold" text-decoration="none" x="214.4345703125" y="306">Provide Trip</text><text fill="#000000" stroke="none" font-family="Arial" font-size="13px" font-style="normal" font-weight="bold" text-decoration="none" x="240.088623046875" y="319">Info</text></g></g><g transform="translate(-166,-110) scale(1,1)"><path fill="#C0C0C0" stroke="none" d="M 217 431 L 309 431 Q 319 431 319 441 L 319 474 Q 319 484 309 484 L 217 484 Q 207 484 207 474 L 207 441 Q 207 431 217 431 Z" opacity="0.2"/></g><g transform="translate(-166,-110) scale(1,1)"><path fill="#ffffff" stroke="none" d="M 210 424 L 302 424 Q 312 424 312 434 L 312 467 Q 312 477 302 477 L 210 477 Q 200 477 200 467 L 200 434 Q 200 424 210 424 Z"/></g><g transform="translate(-166,-110) scale(1,1)"><path fill="none" stroke="#000000" d="M 210 424 L 302 424 Q 312 424 312 434 L 312 467 Q 312 477 302 477 L 210 477 Q 200 477 200 467 L 200 434 Q 200 424 210 424 Z" stroke-miterlimit="10"/></g><g transform="translate(-166,-110) scale(1,1)"><g><path fill="none" stroke="none"/><text fill="#000000" stroke="none" font-family="Arial" font-size="13px" font-style="normal" font-weight="bold" text-decoration="none" x="232.158203125" y="442">Provide</text><text fill="#000000" stroke="none" font-family="Arial" font-size="13px" font-style="normal" font-weight="bold" text-decoration="none" x="215.187744140625" y="455">Payment Info</text></g></g><g transform="translate(-166,-110) scale(1,1)"><path fill="#C0C0C0" stroke="none" d="M 409 231 L 505 231 Q 515 231 515 241 L 515 274 Q 515 284 505 284 L 409 284 Q 399 284 399 274 L 399 241 Q 399 231 409 231 Z" opacity="0.2"/></g><g transform="translate(-166,-110) scale(1,1)"><path fill="#ffffff" stroke="none" d="M 402 224 L 498 224 Q 508 224 508 234 L 508 267 Q 508 277 498 277 L 402 277 Q 392 277 392 267 L 392 234 Q 392 224 402 224 Z"/></g><g transform="translate(-166,-110) scale(1,1)"><path fill="none" stroke="#000000" d="M 402 224 L 498 224 Q 508 224 508 234 L 508 267 Q 508 277 498 277 L 402 277 Q 392 277 392 267 L 392 234 Q 392 224 402 224 Z" stroke-miterlimit="10"/></g><g transform="translate(-166,-110) scale(1,1)"><g><path fill="none" stroke="none"/><text fill="#000000" stroke="none" font-family="Arial" font-size="13px" font-style="normal" font-weight="bold" text-decoration="none" x="410.6318359375" y="242">Request Trip</text><text fill="#000000" stroke="none" font-family="Arial" font-size="13px" font-style="normal" font-weight="bold" text-decoration="none" x="438.088623046875" y="255">Info</text></g></g><g transform="translate(-166,-110) scale(1,1)"><path fill="#C0C0C0" stroke="none" d="M 409 343 L 505 343 Q 515 343 515 353 L 515 386 Q 515 396 505 396 L 409 396 Q 399 396 399 386 L 399 353 Q 399 343 409 343 Z" opacity="0.2"/></g><g transform="translate(-166,-110) scale(1,1)"><path fill="#ffffff" stroke="none" d="M 402 336 L 498 336 Q 508 336 508 346 L 508 379 Q 508 389 498 389 L 402 389 Q 392 389 392 379 L 392 346 Q 392 336 402 336 Z"/></g><g transform="translate(-166,-110) scale(1,1)"><path fill="none" stroke="#000000" d="M 402 336 L 498 336 Q 508 336 508 346 L 508 379 Q 508 389 498 389 L 402 389 Q 392 389 392 379 L 392 346 Q 392 336 402 336 Z" stroke-miterlimit="10"/></g><g transform="translate(-166,-110) scale(1,1)"><g><path fill="none" stroke="none"/><text fill="#000000" stroke="none" font-family="Arial" font-size="13px" font-style="normal" font-weight="bold" text-decoration="none" x="397.263671875" y="354">Process Trip Info</text></g></g><g transform="translate(-166,-110) scale(1,1)"><path fill="#C0C0C0" stroke="none" d="M 409 431 L 506 431 Q 516 431 516 441 L 516 474 Q 516 484 506 484 L 409 484 Q 399 484 399 474 L 399 441 Q 399 431 409 431 Z" opacity="0.2"/></g><g transform="translate(-166,-110) scale(1,1)"><path fill="#ffffff" stroke="none" d="M 402 424 L 499 424 Q 509 424 509 434 L 509 467 Q 509 477 499 477 L 402 477 Q 392 477 392 467 L 392 434 Q 392 424 402 424 Z"/></g><g transform="translate(-166,-110) scale(1,1)"><path fill="none" stroke="#000000" d="M 402 424 L 499 424 Q 509 424 509 434 L 509 467 Q 509 477 499 477 L 402 477 Q 392 477 392 467 L 392 434 Q 392 424 402 424 Z" stroke-miterlimit="10"/></g><g transform="translate(-166,-110) scale(1,1)"><g><path fill="none" stroke="none"/><text fill="#000000" stroke="none" font-family="Arial" font-size="13px" font-style="normal" font-weight="bold" text-decoration="none" x="424.85546875" y="442">Request</text><text fill="#000000" stroke="none" font-family="Arial" font-size="13px" font-style="normal" font-weight="bold" text-decoration="none" x="423.405029296875" y="455">Payment</text></g></g><g transform="translate(-166,-110) scale(1,1)"><path fill="#C0C0C0" stroke="none" d="M 409 511 L 506 511 Q 516 511 516 521 L 516 554 Q 516 564 506 564 L 409 564 Q 399 564 399 554 L 399 521 Q 399 511 409 511 Z" opacity="0.2"/></g><g transform="translate(-166,-110) scale(1,1)"><path fill="#ffffff" stroke="none" d="M 402 504 L 499 504 Q 509 504 509 514 L 509 547 Q 509 557 499 557 L 402 557 Q 392 557 392 547 L 392 514 Q 392 504 402 504 Z"/></g><g transform="translate(-166,-110) scale(1,1)"><path fill="none" stroke="#000000" d="M 402 504 L 499 504 Q 509 504 509 514 L 509 547 Q 509 557 499 557 L 402 557 Q 392 557 392 547 L 392 514 Q 392 504 402 504 Z" stroke-miterlimit="10"/></g><g transform="translate(-166,-110) scale(1,1)"><g><path fill="none" stroke="none"/><text fill="#000000" stroke="none" font-family="Arial" font-size="13px" font-style="normal" font-weight="bold" text-decoration="none" x="425.20458984375" y="522">Process</text><text fill="#000000" stroke="none" font-family="Arial" font-size="13px" font-style="normal" font-weight="bold" text-decoration="none" x="423.405029296875" y="535">Payment</text></g></g><g transform="translate(-166,-110) scale(1,1)"><path fill="none" stroke="#000000" d="M 300 252 L 392 252" stroke-miterlimit="10"/></g><g transform="translate(-166,-110) scale(1,1)"><path fill="none" stroke="#000000" d="M 381.83732514237585 256.209517756016 L 392 252 L 381.83732514237585 247.790482243984" stroke-miterlimit="10"/></g><g transform="translate(-166,-110) scale(1,1)"><path fill="none" stroke="#000000" d="M 448 277 L 448 296 M 448 296 A 8 8 0 0 1 440 304 L 296 304" stroke-miterlimit="10"/></g><g transform="translate(-166,-110) scale(1,1)"><path fill="none" stroke="#000000" d="M 306.16267485762415 299.790482243984 L 296 304 L 306.16267485762415 308.209517756016" stroke-miterlimit="10"/></g><g transform="translate(-166,-110) scale(1,1)"><path fill="none" stroke="#000000" d="M 264 341 L 264 368 M 264 368 A 8 8 0 0 0 272 376 L 392 376" stroke-miterlimit="10"/></g><g transform="translate(-166,-110) scale(1,1)"><path fill="none" stroke="#000000" d="M 381.83732514237585 380.209517756016 L 392 376 L 381.83732514237585 371.790482243984" stroke-miterlimit="10"/></g><g transform="translate(-166,-110) scale(1,1)"><path fill="none" stroke="#000000" d="M 450 389 L 450 424" stroke-miterlimit="10"/></g><g transform="translate(-166,-110) scale(1,1)"><path fill="none" stroke="#000000" d="M 445.790482243984 413.83732514237585 L 450 424 L 454.209517756016 413.83732514237585" stroke-miterlimit="10"/></g><g transform="translate(-166,-110) scale(1,1)"><path fill="none" stroke="#000000" d="M 392 456 L 312 456" stroke-miterlimit="10"/></g><g transform="translate(-166,-110) scale(1,1)"><path fill="none" stroke="#000000" d="M 322.16267485762415 451.790482243984 L 312 456 L 322.16267485762415 460.209517756016" stroke-miterlimit="10"/></g><g transform="translate(-166,-110) scale(1,1)"><path fill="none" stroke="#000000" d="M 256 477 L 256 522 M 256 522 A 8 8 0 0 0 264 530 L 392 530" stroke-miterlimit="10"/></g><g transform="translate(-166,-110) scale(1,1)"><path fill="none" stroke="#000000" d="M 381.83732514237585 534.209517756016 L 392 530 L 381.83732514237585 525.790482243984" stroke-miterlimit="10"/></g><g transform="translate(-166,-110) scale(1,1)"><path fill="none" stroke="#000000" d="M 450 557 L 450 584" stroke-miterlimit="10"/></g><g transform="translate(-166,-110) scale(1,1)"><path fill="none" stroke="#000000" d="M 445.790482243984 573.8373251423759 L 450 584 L 454.209517756016 573.8373251423759" stroke-miterlimit="10"/></g><g transform="translate(-166,-110) scale(1,1)"><path fill="none" stroke="#000000" d="M 451 690 L 451 720" stroke-miterlimit="10"/></g><g transform="translate(-166,-110) scale(1,1)"><path fill="none" stroke="#000000" d="M 446.790482243984 709.8373251423759 L 451 720 L 455.209517756016 709.8373251423759" stroke-miterlimit="10"/></g><g transform="translate(-166,-110) scale(1,1)"><path fill="none" stroke="#000000" d="M 462 592 L 640 592 M 640 592 A 8 8 0 0 1 648 600 L 648 608" stroke-miterlimit="10"/></g><g transform="translate(-166,-110) scale(1,1)"><path fill="none" stroke="#000000" d="M 643.790482243984 597.8373251423759 L 648 608 L 652.209517756016 597.8373251423759" stroke-miterlimit="10"/></g><g transform="translate(-166,-110) scale(1,1)"><g><path fill="none" stroke="none"/><text fill="#000000" stroke="none" font-family="Arial" font-size="13px" font-style="normal" font-weight="normal" text-decoration="none" x="584.286865234375" y="578"> [card with pay]</text></g></g><g transform="translate(-166,-110) scale(1,1)"><path fill="#C0C0C0" stroke="none" d="M 617 615 L 709 615 Q 719 615 719 625 L 719 658 Q 719 668 709 668 L 617 668 Q 607 668 607 658 L 607 625 Q 607 615 617 615 Z" opacity="0.2"/></g><g transform="translate(-166,-110) scale(1,1)"><path fill="#ffffff" stroke="none" d="M 610 608 L 702 608 Q 712 608 712 618 L 712 651 Q 712 661 702 661 L 610 661 Q 600 661 600 651 L 600 618 Q 600 608 610 608 Z"/></g><g transform="translate(-166,-110) scale(1,1)"><path fill="none" stroke="#000000" d="M 610 608 L 702 608 Q 712 608 712 618 L 712 651 Q 712 661 702 661 L 610 661 Q 600 661 600 651 L 600 618 Q 600 608 610 608 Z" stroke-miterlimit="10"/></g><g transform="translate(-166,-110) scale(1,1)"><g><path fill="none" stroke="none"/><text fill="#000000" stroke="none" font-family="Arial" font-size="13px" font-style="normal" font-weight="bold" text-decoration="none" x="609.41455078125" y="626">Authorize Card</text><text fill="#000000" stroke="none" font-family="Arial" font-size="13px" font-style="normal" font-weight="bold" text-decoration="none" x="628.905029296875" y="639">Payment</text></g></g><g transform="translate(-166,-110) scale(1,1)"><path fill="#C0C0C0" stroke="none" d="M 447 600.5 L 458.5 591 L 469 600.5 L 458.5 609 L 447 600.5" opacity="0.2"/></g><g transform="translate(-166,-110) scale(1,1)"><path fill="#ffffff" stroke="none" d="M 440 593 L 451 584 L 462 593 L 451 602 L 440 593"/></g><g transform="translate(-166,-110) scale(1,1)"><path fill="none" stroke="#000000" d="M 440 593 L 451 584 L 462 593 L 451 602 L 440 593 L 440 593" stroke-miterlimit="10"/></g><g transform="translate(-166,-110) scale(1,1)"><path fill="none" stroke="#000000" d="M 451 602 L 451 672" stroke-miterlimit="10"/></g><g transform="translate(-166,-110) scale(1,1)"><path fill="none" stroke="#000000" d="M 446.790482243984 661.8373251423759 L 451 672 L 455.209517756016 661.8373251423759" stroke-miterlimit="10"/></g><g transform="translate(-166,-110) scale(1,1)"><g><path fill="none" stroke="none"/><text fill="#000000" stroke="none" font-family="Arial" font-size="13px" font-style="normal" font-weight="normal" text-decoration="none" x="350.701416015625" y="650"> [pay with cash]</text></g></g><g transform="translate(-166,-110) scale(1,1)"><path fill="none" stroke="#000000" d="M 653 661 L 653 673 M 653 673 A 8 8 0 0 1 645 681 L 462 681" stroke-miterlimit="10"/></g><g transform="translate(-166,-110) scale(1,1)"><path fill="none" stroke="#000000" d="M 472.16267485762415 676.790482243984 L 462 681 L 472.16267485762415 685.209517756016" stroke-miterlimit="10"/></g><g transform="translate(-166,-110) scale(1,1)"><path fill="#C0C0C0" stroke="none" d="M 447 688.5 L 458.5 679 L 469 688.5 L 458.5 697 L 447 688.5" opacity="0.2"/></g><g transform="translate(-166,-110) scale(1,1)"><path fill="#ffffff" stroke="none" d="M 440 681 L 451 672 L 462 681 L 451 690 L 440 681"/></g><g transform="translate(-166,-110) scale(1,1)"><path fill="none" stroke="#000000" d="M 440 681 L 451 672 L 462 681 L 451 690 L 440 681 L 440 681" stroke-miterlimit="10"/></g><g transform="translate(-166,-110) scale(1,1)"><path fill="#C0C0C0" stroke="none" d="M 409 727 L 509 727 Q 519 727 519 737 L 519 757 Q 519 767 509 767 L 409 767 Q 399 767 399 757 L 399 737 Q 399 727 409 727 Z" opacity="0.2"/></g><g transform="translate(-166,-110) scale(1,1)"><path fill="#ffffff" stroke="none" d="M 402 720 L 502 720 Q 512 720 512 730 L 512 750 Q 512 760 502 760 L 402 760 Q 392 760 392 750 L 392 730 Q 392 720 402 720 Z"/></g><g transform="translate(-166,-110) scale(1,1)"><path fill="none" stroke="#000000" d="M 402 720 L 502 720 Q 512 720 512 730 L 512 750 Q 512 760 502 760 L 402 760 Q 392 760 392 750 L 392 730 Q 392 720 402 720 Z" stroke-miterlimit="10"/></g><g transform="translate(-166,-110) scale(1,1)"><g><path fill="none" stroke="none"/><text fill="#000000" stroke="none" font-family="Arial" font-size="13px" font-style="normal" font-weight="bold" text-decoration="none" x="402.624755859375" y="738">Dispense Ticket</text></g></g><g transform="translate(-166,-110) scale(1,1)"><rect fill="#C0C0C0" stroke="none" x="303" y="775" width="72" height="32" opacity="0.2"/></g><g transform="translate(-166,-110) scale(1,1)"><rect fill="#ffffff" stroke="none" x="296" y="768" width="72" height="32"/></g><g transform="translate(-166,-110) scale(1,1)"><path fill="none" stroke="#000000" d="M 296 768 L 368 768 L 368 800 L 296 800 L 296 768 Z Z" stroke-miterlimit="10"/></g><g transform="translate(-166,-110) scale(1,1)"><rect fill="#ffffff" stroke="none" x="296" y="768" width="72" height="32"/></g><g transform="translate(-166,-110) scale(1,1)"><path fill="none" stroke="#000000" d="M 296 768 L 368 768 L 368 800 L 296 800 L 296 768 Z Z" stroke-miterlimit="10"/></g><g transform="translate(-166,-110) scale(1,1)"><g><path fill="none" stroke="none"/><text fill="#000000" stroke="none" font-family="Arial" font-size="13px" font-style="normal" font-weight="bold" text-decoration="none" x="313.33154296875" y="786">Ticket</text></g></g><g transform="translate(-166,-110) scale(1,1)"><path fill="#C0C0C0" stroke="none" d="M 233 823 L 293 823 Q 303 823 303 833 L 303 853 Q 303 863 293 863 L 233 863 Q 223 863 223 853 L 223 833 Q 223 823 233 823 Z" opacity="0.2"/></g><g transform="translate(-166,-110) scale(1,1)"><path fill="#ffffff" stroke="none" d="M 226 816 L 286 816 Q 296 816 296 826 L 296 846 Q 296 856 286 856 L 226 856 Q 216 856 216 846 L 216 826 Q 216 816 226 816 Z"/></g><g transform="translate(-166,-110) scale(1,1)"><path fill="none" stroke="#000000" d="M 226 816 L 286 816 Q 296 816 296 826 L 296 846 Q 296 856 286 856 L 226 856 Q 216 856 216 846 L 216 826 Q 216 816 226 816 Z" stroke-miterlimit="10"/></g><g transform="translate(-166,-110) scale(1,1)"><g><path fill="none" stroke="none"/><text fill="#000000" stroke="none" font-family="Arial" font-size="13px" font-style="normal" font-weight="bold" text-decoration="none" x="224.690185546875" y="834">Get Ticket</text></g></g><g transform="translate(-166,-110) scale(1,1)"><path fill="none" stroke="#000000" d="M 448 760 L 448 776 M 448 776 A 8 8 0 0 1 440 784 L 368 784" stroke-miterlimit="10"/></g><g transform="translate(-166,-110) scale(1,1)"><path fill="none" stroke="#000000" d="M 378.16267485762415 779.790482243984 L 368 784 L 378.16267485762415 788.209517756016" stroke-miterlimit="10"/></g><g transform="translate(-166,-110) scale(1,1)"><path fill="none" stroke="#000000" d="M 296 784 L 264 784 M 264 784 A 8 8 0 0 0 256 792 L 256 816" stroke-miterlimit="10"/></g><g transform="translate(-166,-110) scale(1,1)"><path fill="none" stroke="#000000" d="M 251.790482243984 805.8373251423759 L 256 816 L 260.209517756016 805.8373251423759" stroke-miterlimit="10"/></g><g transform="translate(-166,-110) scale(1,1)"><path fill="none" stroke="#000000" d="M 296 832 L 440 832" stroke-miterlimit="10"/></g><g transform="translate(-166,-110) scale(1,1)"><path fill="none" stroke="#000000" d="M 429.83732514237585 836.209517756016 L 440 832 L 429.83732514237585 827.790482243984" stroke-miterlimit="10"/></g><g transform="translate(-166,-110) scale(1,1)"><path fill="none" stroke="#000000" d="M 462 833 L 528 833 M 528 833 A 8 8 0 0 1 536 841 L 536 984 M 536 984 A 8 8 0 0 1 528 992 L 462 992" stroke-miterlimit="10"/></g><g transform="translate(-166,-110) scale(1,1)"><path fill="none" stroke="#000000" d="M 472.16267485762415 987.790482243984 L 462 992 L 472.16267485762415 996.209517756016" stroke-miterlimit="10"/></g><g transform="translate(-166,-110) scale(1,1)"><path fill="none" stroke="#000000" d="M 448 842 L 448 872" stroke-miterlimit="10"/></g><g transform="translate(-166,-110) scale(1,1)"><path fill="none" stroke="#000000" d="M 443.790482243984 861.8373251423759 L 448 872 L 452.209517756016 861.8373251423759" stroke-miterlimit="10"/></g><g transform="translate(-166,-110) scale(1,1)"><path fill="#C0C0C0" stroke="none" d="M 447 840.5 L 458.5 831 L 469 840.5 L 458.5 849 L 447 840.5" opacity="0.2"/></g><g transform="translate(-166,-110) scale(1,1)"><path fill="#ffffff" stroke="none" d="M 440 833 L 451 824 L 462 833 L 451 842 L 440 833"/></g><g transform="translate(-166,-110) scale(1,1)"><path fill="none" stroke="#000000" d="M 440 833 L 451 824 L 462 833 L 451 842 L 440 833 L 440 833" stroke-miterlimit="10"/></g><g transform="translate(-166,-110) scale(1,1)"><path fill="#C0C0C0" stroke="none" d="M 401 879 L 514 879 Q 524 879 524 889 L 524 909 Q 524 919 514 919 L 401 919 Q 391 919 391 909 L 391 889 Q 391 879 401 879 Z" opacity="0.2"/></g><g transform="translate(-166,-110) scale(1,1)"><path fill="#ffffff" stroke="none" d="M 394 872 L 507 872 Q 517 872 517 882 L 517 902 Q 517 912 507 912 L 394 912 Q 384 912 384 902 L 384 882 Q 384 872 394 872 Z"/></g><g transform="translate(-166,-110) scale(1,1)"><path fill="none" stroke="#000000" d="M 394 872 L 507 872 Q 517 872 517 882 L 517 902 Q 517 912 507 912 L 394 912 Q 384 912 384 902 L 384 882 Q 384 872 394 872 Z" stroke-miterlimit="10"/></g><g transform="translate(-166,-110) scale(1,1)"><g><path fill="none" stroke="none"/><text fill="#000000" stroke="none" font-family="Arial" font-size="13px" font-style="normal" font-weight="bold" text-decoration="none" x="395.957763671875" y="890">Dispense Change</text></g></g><g transform="translate(-166,-110) scale(1,1)"><path fill="none" stroke="#000000" d="M 448 912 L 448 936 M 448 936 A 8 8 0 0 1 440 944 L 376 944" stroke-miterlimit="10"/></g><g transform="translate(-166,-110) scale(1,1)"><path fill="none" stroke="#000000" d="M 386.16267485762415 939.790482243984 L 376 944 L 386.16267485762415 948.209517756016" stroke-miterlimit="10"/></g><g transform="translate(-166,-110) scale(1,1)"><path fill="none" stroke="#000000" d="M 296 944 L 264 944 M 264 944 A 8 8 0 0 0 256 952 L 256 976" stroke-miterlimit="10"/></g><g transform="translate(-166,-110) scale(1,1)"><path fill="none" stroke="#000000" d="M 251.790482243984 965.8373251423759 L 256 976 L 260.209517756016 965.8373251423759" stroke-miterlimit="10"/></g><g transform="translate(-166,-110) scale(1,1)"><path fill="none" stroke="#000000" d="M 302 992 L 440 992" stroke-miterlimit="10"/></g><g transform="translate(-166,-110) scale(1,1)"><path fill="none" stroke="#000000" d="M 429.83732514237585 996.209517756016 L 440 992 L 429.83732514237585 987.790482243984" stroke-miterlimit="10"/></g><g transform="translate(-166,-110) scale(1,1)"><path fill="none" stroke="#000000" d="M 448 1002 L 448 1048" stroke-miterlimit="10"/></g><g transform="translate(-166,-110) scale(1,1)"><path fill="none" stroke="#000000" d="M 443.790482243984 1037.837325142376 L 448 1048 L 452.209517756016 1037.837325142376" stroke-miterlimit="10"/></g><g transform="translate(-166,-110) scale(1,1)"><rect fill="#C0C0C0" stroke="none" x="303" y="935" width="80" height="31" opacity="0.2"/></g><g transform="translate(-166,-110) scale(1,1)"><rect fill="#ffffff" stroke="none" x="296" y="928" width="80" height="31"/></g><g transform="translate(-166,-110) scale(1,1)"><path fill="none" stroke="#000000" d="M 296 928 L 376 928 L 376 959 L 296 959 L 296 928 Z Z" stroke-miterlimit="10"/></g><g transform="translate(-166,-110) scale(1,1)"><rect fill="#ffffff" stroke="none" x="296" y="928" width="80" height="31"/></g><g transform="translate(-166,-110) scale(1,1)"><path fill="none" stroke="#000000" d="M 296 928 L 376 928 L 376 959 L 296 959 L 296 928 Z Z" stroke-miterlimit="10"/></g><g transform="translate(-166,-110) scale(1,1)"><g><path fill="none" stroke="none"/><text fill="#000000" stroke="none" font-family="Arial" font-size="13px" font-style="normal" font-weight="bold" text-decoration="none" x="312.16455078125" y="946">Change</text></g></g><g transform="translate(-166,-110) scale(1,1)"><path fill="#C0C0C0" stroke="none" d="M 233 983 L 299.00048828125 983 Q 309.00048828125 983 309.00048828125 993 L 309.00048828125 1013 Q 309.00048828125 1023 299.00048828125 1023 L 233 1023 Q 223 1023 223 1013 L 223 993 Q 223 983 233 983 Z" opacity="0.2"/></g><g transform="translate(-166,-110) scale(1,1)"><path fill="#ffffff" stroke="none" d="M 226 976 L 292.00048828125 976 Q 302.00048828125 976 302.00048828125 986 L 302.00048828125 1006 Q 302.00048828125 1016 292.00048828125 1016 L 226 1016 Q 216 1016 216 1006 L 216 986 Q 216 976 226 976 Z"/></g><g transform="translate(-166,-110) scale(1,1)"><path fill="none" stroke="#000000" d="M 226 976 L 292.00048828125 976 Q 302.00048828125 976 302.00048828125 986 L 302.00048828125 1006 Q 302.00048828125 1016 292.00048828125 1016 L 226 1016 Q 216 1016 216 1006 L 216 986 Q 216 976 226 976 Z" stroke-miterlimit="10"/></g><g transform="translate(-166,-110) scale(1,1)"><g><path fill="none" stroke="none"/><text fill="#000000" stroke="none" font-family="Arial" font-size="13px" font-style="normal" font-weight="bold" text-decoration="none" x="222.5234375" y="994">Get Change</text></g></g><g transform="translate(-166,-110) scale(1,1)"><path fill="#C0C0C0" stroke="none" d="M 447 1000.5 L 458.5 991 L 469 1000.5 L 458.5 1009 L 447 1000.5" opacity="0.2"/></g><g transform="translate(-166,-110) scale(1,1)"><path fill="#ffffff" stroke="none" d="M 440 993 L 451 984 L 462 993 L 451 1002 L 440 993"/></g><g transform="translate(-166,-110) scale(1,1)"><path fill="none" stroke="#000000" d="M 440 993 L 451 984 L 462 993 L 451 1002 L 440 993 L 440 993" stroke-miterlimit="10"/></g><g transform="translate(-166,-110) scale(1,1)"><path fill="#C0C0C0" stroke="none" d="M 401 1055 L 512 1055 Q 522 1055 522 1065 L 522 1085 Q 522 1095 512 1095 L 401 1095 Q 391 1095 391 1085 L 391 1065 Q 391 1055 401 1055 Z" opacity="0.2"/></g><g transform="translate(-166,-110) scale(1,1)"><path fill="#ffffff" stroke="none" d="M 394 1048 L 505 1048 Q 515 1048 515 1058 L 515 1078 Q 515 1088 505 1088 L 394 1088 Q 384 1088 384 1078 L 384 1058 Q 384 1048 394 1048 Z"/></g><g transform="translate(-166,-110) scale(1,1)"><path fill="none" stroke="#000000" d="M 394 1048 L 505 1048 Q 515 1048 515 1058 L 515 1078 Q 515 1088 505 1088 L 394 1088 Q 384 1088 384 1078 L 384 1058 Q 384 1048 394 1048 Z" stroke-miterlimit="10"/></g><g transform="translate(-166,-110) scale(1,1)"><g><path fill="none" stroke="none"/><text fill="#000000" stroke="none" font-family="Arial" font-size="13px" font-style="normal" font-weight="bold" text-decoration="none" x="397.62060546875" y="1066">Show Thank You</text></g></g><g transform="translate(-166,-110) scale(1,1)"><path fill="none" stroke="#000000" d="M 384 1065 L 265 1065" stroke-miterlimit="10"/></g><g transform="translate(-166,-110) scale(1,1)"><path fill="none" stroke="#000000" d="M 275.16267485762415 1060.7904822439841 L 265 1065 L 275.16267485762415 1069.2095177560159" stroke-miterlimit="10"/></g><g transform="translate(-166,-110) scale(1,1)"><path fill="#C0C0C0" stroke="none" d="M 247 1067.5 C 247 1060.59644 252.59644 1055 259.5 1055 C 266.40356 1055 272 1060.59644 272 1067.5 C 272 1074.40356 266.40356 1080 259.5 1080 C 252.59644 1080 247 1074.40356 247 1067.5 Z" opacity="0.2"/></g><g transform="translate(-166,-110) scale(1,1)"><path fill="none" stroke="#000000" d="M 240 1060.5 C 240 1053.59644 245.59644 1048 252.5 1048 C 259.40356 1048 265 1053.59644 265 1060.5 C 265 1067.40356 259.40356 1073 252.5 1073 C 245.59644 1073 240 1067.40356 240 1060.5 Z" stroke-miterlimit="10"/></g><g transform="translate(-166,-110) scale(1,1)"><path fill="#000000" stroke="none" d="M 245 1060.5 C 245 1056.357864 248.357864 1053 252.5 1053 C 256.642136 1053 260 1056.357864 260 1060.5 C 260 1064.642136 256.642136 1068 252.5 1068 C 248.357864 1068 245 1064.642136 245 1060.5 Z"/></g><g transform="translate(-166,-110) scale(1,1)"><rect fill="#ffffff" stroke="none" x="176" y="1144" width="176" height="32"/></g><g transform="translate(-166,-110) scale(1,1)"><path fill="none" stroke="#000000" d="M 176 1144 L 352 1144 L 352 1176 L 176 1176 L 176 1144 Z Z" stroke-miterlimit="10"/></g><g transform="translate(-166,-110) scale(1,1)"><path fill="none" stroke="#000000" d="M 208.39453125 1144 L 208.39453125 1176" stroke-miterlimit="10"/></g><g transform="translate(-166,-110) scale(1,1)"><g><path fill="none" stroke="none"/><text fill="#000000" stroke="none" font-family="Arial" font-size="13px" font-style="normal" font-weight="normal" text-decoration="none" x="212.89453125" y="1160">https://24k.id/</text></g></g><g transform="translate(-166,-110) scale(1,1)"><g><path fill="none" stroke="none"/><text fill="#000000" stroke="none" font-family="Arial" font-size="13px" font-style="normal" font-weight="bold" text-decoration="none" x="181" y="1160">link</text></g></g></g></svg>