<svg version="1.1" xmlns="http://www.w3.org/2000/svg" xmlns:xlink="http://www.w3.org/1999/xlink" width="796" height="452"><defs/><g><g transform="translate(-14,-30) scale(1,1)"><path fill="#C0C0C0" stroke="none" d="M 207 258.5 C 207 182.75808457142858 341.31456000000003 121.35714285714286 507 121.35714285714286 C 672.68544 121.35714285714286 807 182.75808457142858 807 258.5 C 807 334.2419154285714 672.68544 395.6428571428571 507 395.6428571428571 C 341.31456000000003 395.6428571428571 207 334.2419154285714 207 258.5 Z" opacity="0.2"/></g><g transform="translate(-14,-30) scale(1,1)"><path fill="#ffffff" stroke="none" d="M 200.00000000000006 233.1428571428571 C 200.00000000000006 157.4009417142857 334.31456000000003 96 500.00000000000006 96 C 665.6854400000001 96 800 157.4009417142857 800 233.1428571428571 C 800 308.8847725714285 665.6854400000001 370.2857142857142 500.00000000000006 370.2857142857142 C 334.31456000000003 370.2857142857142 200.00000000000006 308.8847725714285 200.00000000000006 233.1428571428571 Z"/></g><g transform="translate(-14,-30) scale(1,1)"><path fill="none" stroke="#000000" d="M 200.00000000000006 233.1428571428571 C 200.00000000000006 157.4009417142857 334.31456000000003 96 500.00000000000006 96 C 665.6854400000001 96 800 157.4009417142857 800 233.1428571428571 C 800 308.8847725714285 665.6854400000001 370.2857142857142 500.00000000000006 370.2857142857142 C 334.31456000000003 370.2857142857142 200.00000000000006 308.8847725714285 200.00000000000006 233.1428571428571 Z" stroke-miterlimit="10"/></g><g transform="translate(-14,-30) scale(1,1)"><g><path fill="none" stroke="none"/><text fill="#000000" stroke="none" font-family="Arial" font-size="13px" font-style="normal" font-weight="bold" text-decoration="none" x="482.312255859375" y="388.2857142857142">Login</text></g></g><g transform="translate(-14,-30) scale(1,1)"><path fill="#ffffff" stroke="none" d="M 69.67521946022727 209.68 C 69.67521946022727 204.886167936 73.56106178517273 201 78.3544921875 201 C 83.14792258982727 201 87.03376491477273 204.886167936 87.03376491477273 209.68 C 87.03376491477273 214.47383206400002 83.14792258982727 218.36 78.3544921875 218.36 C 73.56106178517273 218.36 69.67521946022727 214.47383206400002 69.67521946022727 209.68 Z"/></g><g transform="translate(-14,-30) scale(1,1)"><path fill="none" stroke="#000000" d="M 69.67521946022727 209.68 C 69.67521946022727 204.886167936 73.56106178517273 201 78.3544921875 201 C 83.14792258982727 201 87.03376491477273 204.886167936 87.03376491477273 209.68 C 87.03376491477273 214.47383206400002 83.14792258982727 218.36 78.3544921875 218.36 C 73.56106178517273 218.36 69.67521946022727 214.47383206400002 69.67521946022727 209.68 Z" stroke-miterlimit="10"/></g><g transform="translate(-14,-30) scale(1,1)"><path fill="none" stroke="#000000" d="M 78.3544921875 218.36 L 78.3544921875 235.64" stroke-miterlimit="10"/></g><g transform="translate(-14,-30) scale(1,1)"><path fill="none" stroke="#000000" d="M 69.16467400568182 224.84 L 87.54431036931818 224.84" stroke-miterlimit="10"/></g><g transform="translate(-14,-30) scale(1,1)"><path fill="none" stroke="#000000" d="M 78.3544921875 235.64 L 65.59085582386363 253" stroke-miterlimit="10"/></g><g transform="translate(-14,-30) scale(1,1)"><path fill="none" stroke="#000000" d="M 78.3544921875 235.64 L 91.11812855113637 253" stroke-miterlimit="10"/></g><g transform="translate(-14,-30) scale(1,1)"><g><path fill="none" stroke="none"/><text fill="#000000" stroke="none" font-family="Arial" font-size="13px" font-style="normal" font-weight="bold" text-decoration="none" x="28.5" y="272">Registered User</text></g></g><g transform="translate(-14,-30) scale(1,1)"><path fill="#ffffff" stroke="none" d="M 671.9 264.5 C 671.9 253.67521792 680.67521792 244.9 691.5 244.9 C 702.32478208 244.9 711.1 253.67521792 711.1 264.5 C 711.1 275.32478208 702.32478208 284.1 691.5 284.1 C 680.67521792 284.1 671.9 275.32478208 671.9 264.5 Z"/></g><g transform="translate(-14,-30) scale(1,1)"><path fill="none" stroke="#000000" d="M 671.9 264.5 C 671.9 253.67521792 680.67521792 244.9 691.5 244.9 C 702.32478208 244.9 711.1 253.67521792 711.1 264.5 C 711.1 275.32478208 702.32478208 284.1 691.5 284.1 C 680.67521792 284.1 671.9 275.32478208 671.9 264.5 Z" stroke-miterlimit="10"/></g><g transform="translate(-14,-30) scale(1,1)"><path fill="none" stroke="#000000" d="M 671.9 284.1 L 711.1 284.1" stroke-miterlimit="10"/></g><g transform="translate(-14,-30) scale(1,1)"><g><path fill="none" stroke="none"/><text fill="#000000" stroke="none" font-family="Arial" font-size="13px" font-style="normal" font-weight="normal" text-decoration="none" x="668.734130859375" y="305">«entity»</text></g></g><g transform="translate(-14,-30) scale(1,1)"><g><path fill="none" stroke="none"/><text fill="#000000" stroke="none" font-family="Arial" font-size="13px" font-style="normal" font-weight="bold" text-decoration="none" x="667.658203125" y="320">UserDB</text></g></g><g transform="translate(-14,-30) scale(1,1)"><path fill="#ffffff" stroke="none" d="M 289.13447265625 256.5 C 289.13447265625 245.67521792 297.90969057625 236.9 308.73447265625 236.9 C 319.55925473624995 236.9 328.33447265625 245.67521792 328.33447265625 256.5 C 328.33447265625 267.32478208 319.55925473624995 276.1 308.73447265625 276.1 C 297.90969057625 276.1 289.13447265625 267.32478208 289.13447265625 256.5 Z"/></g><g transform="translate(-14,-30) scale(1,1)"><path fill="none" stroke="#000000" d="M 289.13447265625 256.5 C 289.13447265625 245.67521792 297.90969057625 236.9 308.73447265625 236.9 C 319.55925473624995 236.9 328.33447265625 245.67521792 328.33447265625 256.5 C 328.33447265625 267.32478208 319.55925473624995 276.1 308.73447265625 276.1 C 297.90969057625 276.1 289.13447265625 267.32478208 289.13447265625 256.5 Z" stroke-miterlimit="10"/></g><g transform="translate(-14,-30) scale(1,1)"><path fill="none" stroke="#000000" d="M 279.33447265625 236.9 L 279.33447265625 276.1" stroke-miterlimit="10"/></g><g transform="translate(-14,-30) scale(1,1)"><path fill="none" stroke="#000000" d="M 279.33447265625 256.5 L 289.13447265625 256.5" stroke-miterlimit="10"/></g><g transform="translate(-14,-30) scale(1,1)"><g><path fill="none" stroke="none"/><text fill="#000000" stroke="none" font-family="Arial" font-size="13px" font-style="normal" font-weight="normal" text-decoration="none" x="269.5" y="297">«boundary»</text></g></g><g transform="translate(-14,-30) scale(1,1)"><g><path fill="none" stroke="none"/><text fill="#000000" stroke="none" font-family="Arial" font-size="13px" font-style="normal" font-weight="bold" text-decoration="none" x="260.92431640625" y="312">HomeWindow</text></g></g><g transform="translate(-14,-30) scale(1,1)"><path fill="#ffffff" stroke="none" d="M 409.125 128.5 C 409.125 118.35176680000001 417.3517668 110.125 427.5 110.125 C 437.6482332 110.125 445.875 118.35176680000001 445.875 128.5 C 445.875 138.6482332 437.6482332 146.875 427.5 146.875 C 417.3517668 146.875 409.125 138.6482332 409.125 128.5 Z"/></g><g transform="translate(-14,-30) scale(1,1)"><path fill="none" stroke="#000000" d="M 409.125 128.5 C 409.125 118.35176680000001 417.3517668 110.125 427.5 110.125 C 437.6482332 110.125 445.875 118.35176680000001 445.875 128.5 C 445.875 138.6482332 437.6482332 146.875 427.5 146.875 C 417.3517668 146.875 409.125 138.6482332 409.125 128.5 Z" stroke-miterlimit="10"/></g><g transform="translate(-14,-30) scale(1,1)"><path fill="none" stroke="#000000" d="M 427.5 110.125 L 433.625 104" stroke-miterlimit="10"/></g><g transform="translate(-14,-30) scale(1,1)"><path fill="none" stroke="#000000" d="M 427.5 110.125 L 433.625 116.25" stroke-miterlimit="10"/></g><g transform="translate(-14,-30) scale(1,1)"><g><path fill="none" stroke="none"/><text fill="#000000" stroke="none" font-family="Arial" font-size="13px" font-style="normal" font-weight="normal" text-decoration="none" x="400.760498046875" y="169">«control»</text></g></g><g transform="translate(-14,-30) scale(1,1)"><g><path fill="none" stroke="none"/><text fill="#000000" stroke="none" font-family="Arial" font-size="13px" font-style="normal" font-weight="bold" text-decoration="none" x="409.812255859375" y="184">Login</text></g></g><g transform="translate(-14,-30) scale(1,1)"><path fill="#ffffff" stroke="none" d="M 553.25 265 C 553.25 254.64466 561.64466 246.25 572 246.25 C 582.35534 246.25 590.75 254.64466 590.75 265 C 590.75 275.35534 582.35534 283.75 572 283.75 C 561.64466 283.75 553.25 275.35534 553.25 265 Z"/></g><g transform="translate(-14,-30) scale(1,1)"><path fill="none" stroke="#000000" d="M 553.25 265 C 553.25 254.64466 561.64466 246.25 572 246.25 C 582.35534 246.25 590.75 254.64466 590.75 265 C 590.75 275.35534 582.35534 283.75 572 283.75 C 561.64466 283.75 553.25 275.35534 553.25 265 Z" stroke-miterlimit="10"/></g><g transform="translate(-14,-30) scale(1,1)"><path fill="none" stroke="#000000" d="M 572 246.25 L 578.25 240" stroke-miterlimit="10"/></g><g transform="translate(-14,-30) scale(1,1)"><path fill="none" stroke="#000000" d="M 572 246.25 L 578.25 252.5" stroke-miterlimit="10"/></g><g transform="translate(-14,-30) scale(1,1)"><g><path fill="none" stroke="none"/><text fill="#000000" stroke="none" font-family="Arial" font-size="13px" font-style="normal" font-weight="normal" text-decoration="none" x="545.260498046875" y="306">«control»</text></g></g><g transform="translate(-14,-30) scale(1,1)"><g><path fill="none" stroke="none"/><text fill="#000000" stroke="none" font-family="Arial" font-size="13px" font-style="normal" font-weight="bold" text-decoration="none" x="532.977783203125" y="321">ValidateUser</text></g></g><g transform="translate(-14,-30) scale(1,1)"><path fill="#ffffff" stroke="none" d="M 563.338818359375 131.5 C 563.338818359375 122.88435712 570.323175479375 115.9 578.938818359375 115.9 C 587.554461239375 115.9 594.538818359375 122.88435712 594.538818359375 131.5 C 594.538818359375 140.11564288 587.554461239375 147.1 578.938818359375 147.1 C 570.323175479375 147.1 563.338818359375 140.11564288 563.338818359375 131.5 Z"/></g><g transform="translate(-14,-30) scale(1,1)"><path fill="none" stroke="#000000" d="M 563.338818359375 131.5 C 563.338818359375 122.88435712 570.323175479375 115.9 578.938818359375 115.9 C 587.554461239375 115.9 594.538818359375 122.88435712 594.538818359375 131.5 C 594.538818359375 140.11564288 587.554461239375 147.1 578.938818359375 147.1 C 570.323175479375 147.1 563.338818359375 140.11564288 563.338818359375 131.5 Z" stroke-miterlimit="10"/></g><g transform="translate(-14,-30) scale(1,1)"><path fill="none" stroke="#000000" d="M 555.538818359375 115.9 L 555.538818359375 147.1" stroke-miterlimit="10"/></g><g transform="translate(-14,-30) scale(1,1)"><path fill="none" stroke="#000000" d="M 555.538818359375 131.5 L 563.338818359375 131.5" stroke-miterlimit="10"/></g><g transform="translate(-14,-30) scale(1,1)"><g><path fill="none" stroke="none"/><text fill="#000000" stroke="none" font-family="Arial" font-size="13px" font-style="normal" font-weight="normal" text-decoration="none" x="540.704345703125" y="167">«boundary»</text></g></g><g transform="translate(-14,-30) scale(1,1)"><g><path fill="none" stroke="none"/><text fill="#000000" stroke="none" font-family="Arial" font-size="13px" font-style="normal" font-weight="bold" text-decoration="none" x="532.5" y="182">LoginWindow</text></g></g><g transform="translate(-14,-30) scale(1,1)"><rect fill="#ffffff" stroke="none" x="216" y="440" width="160" height="32"/></g><g transform="translate(-14,-30) scale(1,1)"><path fill="none" stroke="#000000" d="M 216 440 L 376 440 L 376 472 L 216 472 L 216 440 Z Z" stroke-miterlimit="10"/></g><g transform="translate(-14,-30) scale(1,1)"><path fill="none" stroke="#000000" d="M 248.39453125 440 L 248.39453125 472" stroke-miterlimit="10"/></g><g transform="translate(-14,-30) scale(1,1)"><g><path fill="none" stroke="none"/><text fill="#000000" stroke="none" font-family="Arial" font-size="13px" font-style="normal" font-weight="normal" text-decoration="none" x="252.89453125" y="456">https://24k.id/</text></g></g><g transform="translate(-14,-30) scale(1,1)"><g><path fill="none" stroke="none"/><text fill="#000000" stroke="none" font-family="Arial" font-size="13px" font-style="normal" font-weight="bold" text-decoration="none" x="221" y="456">link</text></g></g><g transform="translate(-14,-30) scale(1,1)"><path fill="none" stroke="#000000" d="M 527 282 L 361 277" stroke-miterlimit="10"/></g><g transform="translate(-14,-30) scale(1,1)"><path fill="none" stroke="#000000" d="M 371.28480320872654 273.09835637740093 L 361 277 L 371.0313327553728 281.51357542874666" stroke-miterlimit="10"/></g><g transform="translate(-14,-30) scale(1,1)"><path fill="none" stroke="#000000" d="M 655 283 L 617 284" stroke-miterlimit="10"/></g><g transform="translate(-14,-30) scale(1,1)"><path fill="none" stroke="#000000" d="M 627.0484193071803 279.5245928199676 L 617 284 L 627.2698961978849 287.9407146667412" stroke-miterlimit="10"/></g><g transform="translate(-14,-30) scale(1,1)"><path fill="none" stroke="#000000" d="M 346 231 L 391 184" stroke-miterlimit="10"/></g><g transform="translate(-14,-30) scale(1,1)"><path fill="none" stroke="#000000" d="M 387.0123521078249 194.25176395982814 L 391 184 L 380.93121531934037 188.42939894957703" stroke-miterlimit="10"/></g><g transform="translate(-14,-30) scale(1,1)"><path fill="none" stroke="#000000" d="M 464 148 L 527 149" stroke-miterlimit="10"/></g><g transform="translate(-14,-30) scale(1,1)"><path fill="none" stroke="#000000" d="M 516.7717958305514 153.04769557502445 L 527 149 L 516.9054144831438 144.62972046170088" stroke-miterlimit="10"/></g><g transform="translate(-14,-30) scale(1,1)"><path fill="none" stroke="#000000" d="M 574 190 L 573 239" stroke-miterlimit="10"/></g><g transform="translate(-14,-30) scale(1,1)"><path fill="none" stroke="#000000" d="M 568.9987169383965 228.7535501825791 L 573 239 L 577.4159997626792 228.9253314647073" stroke-miterlimit="10"/></g><g transform="translate(-14,-30) scale(1,1)"><path fill="none" stroke="#000000" d="M 573 239 L 574 190" stroke-miterlimit="10"/></g><g transform="translate(-14,-30) scale(1,1)"><path fill="none" stroke="#000000" d="M 578.0012830616035 200.2464498174209 L 574 190 L 569.5840002373208 200.0746685352927" stroke-miterlimit="10"/></g><g transform="translate(-14,-30) scale(1,1)"><path fill="none" stroke="#000000" d="M 134 242 L 199 246" stroke-miterlimit="10"/></g><g transform="translate(-14,-30) scale(1,1)"><path fill="none" stroke="#000000" d="M 188.59795546281214 249.57735509089608 L 199 246 L 189.11507172606514 241.17421581303483" stroke-miterlimit="10"/></g><g transform="translate(-14,-30) scale(1,1)"><g><path fill="none" stroke="none"/><text fill="#000000" stroke="none" font-family="Arial" font-size="20px" font-style="normal" font-weight="normal" text-decoration="none" x="221" y="60">24k.id - LOGIN (TYPE: UML CLASS DIAGRAM)</text></g></g></g></svg>